<?xml version="1.0" encoding="utf-8"?>
<!-- Generator: Adobe Illustrator 17.0.0, SVG Export Plug-In . SVG Version: 6.00 Build 0)  -->
<!DOCTYPE svg PUBLIC "-//W3C//DTD SVG 1.1//EN" "http://www.w3.org/Graphics/SVG/1.1/DTD/svg11.dtd">
<svg version="1.1" id="Слой_1" xmlns="http://www.w3.org/2000/svg" xmlns:xlink="http://www.w3.org/1999/xlink" x="0px" y="0px"
	 width="38.75px" height="38.75px" viewBox="0.625 0.625 38.75 38.75" enable-background="new 0.625 0.625 38.75 38.75"
	 xml:space="preserve">
<g>
	<g>
		<path fill="#30BF39" d="M20,39.375c10.701,0,19.375-8.674,19.375-19.375C39.375,9.299,30.701,0.625,20,0.625
			C9.299,0.625,0.625,9.299,0.625,20C0.625,30.701,9.299,39.375,20,39.375z"/>
		<path fill="#FFFFFF" d="M25.875,21.751c-0.25-0.125-1.563-0.875-1.813-0.938c-0.25-0.125-0.438-0.125-0.625,0.125
			s-0.75,0.875-0.875,1c-0.188,0.188-0.313,0.188-0.563,0.063s-1.125-0.438-2.125-1.438c-0.75-0.75-1.313-1.625-1.438-1.938
			c-0.125-0.25,0-0.438,0.125-0.563s0.25-0.313,0.438-0.438s0.188-0.25,0.313-0.438s0.063-0.313,0-0.5s-0.563-1.5-0.75-2.062
			s-0.438-0.438-0.563-0.5c-0.188,0-0.313-0.063-0.5-0.063c-0.25,0-0.563,0.125-0.75,0.313c-0.25,0.25-1,0.875-1,2.187
			s0.875,2.688,1,2.813c0.125,0.188,1.75,3.063,4.438,4.25s2.688,0.813,3.188,0.813S26,23.813,26.25,23.251
			c0.25-0.625,0.25-1.188,0.188-1.25C26.313,22.001,26.125,21.938,25.875,21.751z M20.875,28.188c-1.75,0-3.375-0.5-4.813-1.438
			l-3.375,1.063l1.125-3.25c-1.063-1.5-1.688-3.313-1.688-5.188c0-4.875,3.938-8.812,8.813-8.812s8.75,3.938,8.75,8.812
			S25.75,28.188,20.875,28.188z M20.875,8.813c-5.813,0-10.563,4.75-10.563,10.563c0,1.938,0.5,3.813,1.5,5.438l-1.938,5.688
			l5.875-1.875c1.563,0.875,3.313,1.313,5.125,1.313c5.813,0,10.563-4.75,10.563-10.563S26.75,8.813,20.875,8.813z"/>
	</g>
</g>
</svg>
